PathFileType	4	(X/Y/Z)	c:/Users/goper/Files/vsCode/490R/osim_files/C12/C12_Slow_01.trc
DataRate	CameraRate	NumFrames	NumMarkers	Units                	OrigDataRate	OrigDataStartFrame	OrigNumFrames
120.00	120.00	5	36	mm	120.0	644	1287
                Frame#	Time	LPSIS			LASIS			LTH1			LTH2			LTH3			LTH4			LLFE			LMFE			LSH1			LSH2			LSH3			LSH4			LLMAL			LMMAL			LCAL			LMTP5			LTOE			LMTP1			RPSIS			RASIS			RTH1			RTH2			RTH3			RTH4			RLFE			RMFE			RSH1			RSH2			RSH3			RSH4			RLMAL			RMMAL			RCAL			RMTP1			RTOE			RMTP5		
		X1	Y1	Z1	X2	Y2	Z2	X3	Y3	Z3	X4	Y4	Z4	X5	Y5	Z5	X6	Y6	Z6	X7	Y7	Z7	X8	Y8	Z8	X9	Y9	Z9	X10	Y10	Z10	X11	Y11	Z11	X12	Y12	Z12	X13	Y13	Z13	X14	Y14	Z14	X15	Y15	Z15	X16	Y16	Z16	X17	Y17	Z17	X18	Y18	Z18	X19	Y19	Z19	X20	Y20	Z20	X21	Y21	Z21	X22	Y22	Z22	X23	Y23	Z23	X24	Y24	Z24	X25	Y25	Z25	X26	Y26	Z26	X27	Y27	Z27	X28	Y28	Z28	X29	Y29	Z29	X30	Y30	Z30	X31	Y31	Z31	X32	Y32	Z32	X33	Y33	Z33	X34	Y34	Z34	X35	Y35	Z35	X36	Y36	Z36

644	5.35833	895.69739	1068.15845	344.24649	722.30304	1027.32507	419.28210	802.32953	745.62299	477.98880	787.04950	700.29504	481.16965	742.15729	756.69293	494.23846	735.87445	710.92297	495.48450	721.23352	530.96014	476.78262	691.86652	512.22003	351.65836	820.18182	505.56570	477.06744	857.03595	476.22467	482.57840	786.40594	456.31064	486.87262	827.71881	433.05630	486.67587	1071.77051	280.50479	423.33142	1046.34302	266.08179	349.54858	1110.46521	324.00873	374.62955	1083.30286	129.77623	445.84979	1017.81622	98.68943	390.09274	1048.68201	111.95529	342.65259	898.06842	1069.12891	229.24217	710.82068	1038.28357	163.93019	774.35529	748.81128	112.80786	763.47620	705.27722	122.00535	712.79645	757.69348	115.10333	708.14502	709.47925	124.86378	730.73126	529.21930	170.43761	734.35297	537.98566	303.23056	794.14331	432.00610	153.43495	793.01038	388.47546	149.17358	731.08429	424.42673	161.89748	741.04156	383.21527	154.92999	788.63794	98.87445	209.69031	772.63184	117.38942	291.67249	863.00281	67.79346	249.85036	649.78552	44.72935	299.16937	607.53571	62.70317	266.60068	639.21936	36.17727	191.94385
645	5.36667	886.46802	1070.25146	343.78696	713.06976	1029.31958	418.18546	788.84497	747.85425	478.33078	772.75494	702.54974	481.32251	726.50574	758.33899	493.89453	721.27899	713.89362	495.16739	704.47156	534.76776	476.17822	674.52423	516.06256	351.45123	802.92828	507.15472	477.14032	839.17920	477.46155	482.37128	767.78864	458.40308	486.53552	808.91730	434.59619	486.21887	1050.55640	277.34711	423.04114	1024.53699	263.69751	349.31830	1090.94763	319.05106	374.27139	1056.07593	126.56101	446.48755	989.28601	97.75798	390.87082	1020.86572	109.37051	343.20413	889.50848	1071.04858	228.72411	703.23407	1039.45398	162.71300	769.51697	749.77887	112.77184	759.40900	706.20837	121.83286	708.15936	757.85486	114.37322	704.38745	709.65436	123.76534	729.08124	529.69061	169.95425	731.91705	538.49078	302.97260	792.74670	432.72672	153.29361	791.91284	389.26202	149.01588	729.78363	424.95029	161.50133	739.94739	383.78967	154.51514	788.35071	99.52377	209.56471	772.02789	117.81367	291.45728	862.58344	68.52470	249.69702	649.60645	44.68401	299.04776	607.26306	62.43525	266.49780	639.03473	36.00302	191.88583
646	5.37500	877.23987	1072.32397	343.42413	704.06720	1031.11316	417.14487	770.33057	747.15021	476.93594	758.84351	705.05927	481.54892	712.98865	761.44128	493.72540	707.54156	717.57239	495.79828	687.65906	537.97723	475.93045	657.40631	520.14532	350.93613	785.89496	508.83511	476.82071	820.88037	477.87451	482.03275	749.17084	460.51398	486.02356	790.02655	435.87863	485.83746	1028.54932	273.29477	422.81705	1002.03217	260.36276	349.39395	1071.54944	313.57083	373.78214	1028.14465	122.61955	446.99890	960.47754	96.45028	391.38071	992.54816	106.37495	343.84143	880.76495	1072.77026	228.62646	694.02502	1040.72522	161.41356	765.19189	750.94708	112.65339	755.61255	707.26404	121.20363	703.57147	757.97144	113.68989	700.37866	709.69824	122.96165	726.24475	530.28961	170.22008	729.61560	539.06110	302.71524	791.66058	433.57443	153.15793	790.92596	390.04056	148.95094	728.98334	425.85184	160.92249	738.98114	384.34467	154.17775	788.02814	100.15744	209.41278	771.60608	118.41459	291.26425	862.30463	69.41022	249.36882	649.43494	44.70386	298.93326	607.00232	62.23903	266.40662	639.05341	35.88434	191.82483
647	5.38333	868.22748	1074.34546	343.17773	695.21277	1032.86487	416.03360	756.95905	749.35431	477.15607	744.86475	707.25995	481.77518	699.71838	764.53833	493.35834	693.61749	720.67242	495.54257	671.14319	541.20435	475.28625	641.06476	524.28088	350.33005	769.00763	510.03113	476.42145	802.96332	477.69955	481.37372	730.77209	462.36230	485.77637	771.38098	436.76581	485.30078	1006.88660	268.60345	422.64435	979.08490	256.31366	349.43350	1050.67114	306.67227	373.40604	1000.10248	118.31438	447.65939	931.34460	94.63389	392.40997	963.77271	102.82304	344.71555	871.74957	1074.29761	228.46077	684.61768	1041.87341	160.63326	760.76740	752.02777	112.57376	752.12421	708.43243	120.82593	699.00745	758.04413	113.05489	0.00000	0.00000	0.00000	724.60614	530.84637	169.90672	727.20654	539.56464	302.42950	790.48029	434.43384	153.16766	789.90436	390.85913	148.87480	727.84216	426.49182	160.56680	737.96820	384.96710	153.91017	787.67249	100.89085	209.26950	770.83844	118.84536	291.64188	862.07672	70.24860	249.16238	649.26123	44.76188	298.84201	606.79767	62.09536	266.31461	638.94843	35.77607	191.74809
648	5.39167	859.11560	1076.02832	343.12457	686.59033	1033.70447	414.96497	743.56036	751.26190	477.44534	730.70544	709.15375	482.31436	688.34607	767.89893	493.02283	679.67114	723.76288	495.06540	654.95447	544.29578	474.88086	625.32532	528.27893	349.79318	752.04773	511.01443	476.04562	785.40149	477.52103	480.99857	712.83582	463.68436	485.24609	752.24078	437.25458	484.94009	983.90985	262.99240	422.39505	956.08447	251.57840	349.27075	1029.77966	299.09155	372.93747	971.45880	113.45835	448.58685	901.80383	92.34261	393.56586	934.08417	98.85429	345.93320	863.07739	1075.78772	228.39874	678.83490	1042.33081	159.31714	756.30835	753.02301	112.57279	748.23370	709.33990	120.77338	694.44214	758.07385	112.46973	692.80145	709.96667	121.29156	724.40338	531.40375	168.85576	724.49957	540.09833	302.10239	789.46808	435.28448	153.06300	789.09369	391.73743	148.75566	726.98370	427.06024	160.06186	737.11005	385.64825	153.60785	787.42944	101.63345	209.09631	769.72675	119.76228	291.48669	861.79852	71.09851	249.00082	649.09344	44.79649	298.75906	606.56805	61.90535	266.23395	638.82129	35.65087	191.67517
